<svg width="26" height="27" viewBox="0 0 26 27" fill="none" xmlns="http://www.w3.org/2000/svg">
<path d="M25.9848 4.47525C25.8363 2.95742 24.6783 1.96476 23.0969 1.94949C22.4368 1.9427 21.7767 1.94779 21.1158 1.94779H20.8299V0.604736H5.18203V1.94779C5.04968 1.94779 4.908 1.94695 4.76716 1.94779C4.0562 1.95288 3.34355 1.93167 2.63428 1.96816C1.32181 2.03518 0.315605 2.93197 0.0517525 4.22497C0.0381781 4.28945 0.016968 4.35223 0 4.41501V5.1769C0.0678721 5.71311 0.123018 6.25016 0.204465 6.78297C0.581155 9.26292 1.37017 11.5808 2.95837 13.5653C4.58221 15.593 6.70237 16.7935 9.24417 17.2704C9.52584 17.323 9.80921 17.3654 10.1078 17.4154C10.1011 17.4714 10.1028 17.5215 10.09 17.5665C9.74134 18.7848 9.3901 20.0031 9.04226 21.2223C9.00662 21.3462 8.9659 21.4192 8.81149 21.4327C7.58385 21.5362 6.64976 22.3702 6.54117 23.6039C6.45378 24.5931 6.52335 25.5951 6.52335 26.6047H19.5209C19.5209 26.2815 19.5217 25.971 19.5209 25.6604C19.52 25.0419 19.5319 24.4234 19.5141 23.8058C19.4767 22.5382 18.5079 21.5337 17.2463 21.4226C17.1631 21.4158 17.0367 21.3369 17.0155 21.2664C16.638 19.9955 16.2732 18.7212 15.899 17.4205C16.1858 17.3722 16.459 17.3306 16.7305 17.2797C20.3048 16.606 22.8525 14.5927 24.4458 11.3475C25.2832 9.64216 25.7218 7.82399 25.911 5.94218C25.9602 5.45434 26.0315 4.95716 25.9848 4.47525ZM5.09974 12.0958C3.89161 10.6382 3.24598 8.92694 2.90408 7.0918C2.76833 6.36215 2.70725 5.61893 2.61307 4.88165C2.59186 4.7179 2.59695 4.56094 2.82008 4.56094C3.64812 4.55755 4.47616 4.55925 5.33305 4.55925C5.38565 5.0717 5.42976 5.57312 5.4883 6.07284C5.77082 8.4654 6.22302 10.8155 7.27419 13.0096C7.45999 13.3973 7.68227 13.7672 7.90879 14.1846C6.77872 13.7019 5.85651 13.0079 5.09974 12.0958ZM23.4099 4.81802C23.2479 6.93654 22.8389 8.98888 21.7683 10.8597C20.9199 12.3427 19.7406 13.4677 18.104 14.1863C19.9077 11.1973 20.3718 7.90798 20.6916 4.56943C20.7417 4.56434 20.7816 4.55585 20.8223 4.55585C21.5926 4.55501 22.363 4.55755 23.1333 4.55331C23.32 4.55246 23.4252 4.61524 23.4099 4.81802Z" fill="#ffffff"/>
</svg>
