<svg width="36" height="36" viewBox="0 0 36 36" xmlns="http://www.w3.org/2000/svg">
  <path
    d="M31.4205 12.4575C31.4054 11.3214 31.1927 10.1967 30.792 9.1335C30.4445 8.23672 29.9138 7.42229 29.2337 6.74224C28.5537 6.06219 27.7393 5.53147 26.8425 5.184C25.793 4.79003 24.6842 4.57701 23.5635 4.554C22.1205 4.4895 21.663 4.4715 18 4.4715C14.337 4.4715 13.8675 4.4715 12.435 4.554C11.3147 4.57718 10.2065 4.7902 9.15748 5.184C8.26057 5.53123 7.44602 6.06186 6.76593 6.74195C6.08585 7.42203 5.55522 8.23658 5.20798 9.1335C4.81323 10.1822 4.60067 11.2907 4.57948 12.411C4.51498 13.8555 4.49548 14.313 4.49548 17.976C4.49548 21.639 4.49548 22.107 4.57948 23.541C4.60198 24.663 4.81348 25.77 5.20798 26.8215C5.5558 27.7181 6.08683 28.5324 6.76714 29.2122C7.44745 29.892 8.26208 30.4224 9.15898 30.7695C10.2051 31.1793 11.3135 31.4076 12.4365 31.4445C13.881 31.509 14.3385 31.5285 18.0015 31.5285C21.6645 31.5285 22.134 31.5285 23.5665 31.4445C24.6872 31.4224 25.796 31.2099 26.8455 30.816C27.742 30.4681 28.5562 29.9373 29.2362 29.2573C29.9162 28.5773 30.4471 27.763 30.795 26.8665C31.1895 25.8165 31.401 24.7095 31.4235 23.586C31.488 22.143 31.5075 21.6855 31.5075 18.021C31.5045 14.358 31.5045 13.893 31.4205 12.4575ZM17.991 24.903C14.16 24.903 11.0565 21.7995 11.0565 17.9685C11.0565 14.1375 14.16 11.034 17.991 11.034C19.8301 11.034 21.5939 11.7646 22.8944 13.0651C24.1949 14.3655 24.9255 16.1294 24.9255 17.9685C24.9255 19.8076 24.1949 21.5715 22.8944 22.8719C21.5939 24.1724 19.8301 24.903 17.991 24.903ZM25.2015 12.3945C24.9891 12.3947 24.7787 12.353 24.5825 12.2718C24.3862 12.1906 24.2078 12.0715 24.0577 11.9213C23.9075 11.7711 23.7884 11.5928 23.7072 11.3965C23.626 11.2003 23.5843 10.9899 23.5845 10.7775C23.5845 10.5652 23.6263 10.3551 23.7075 10.159C23.7887 9.96289 23.9078 9.78472 24.0579 9.63463C24.208 9.48455 24.3861 9.3655 24.5822 9.28428C24.7783 9.20305 24.9885 9.16125 25.2007 9.16125C25.413 9.16125 25.6232 9.20305 25.8192 9.28428C26.0153 9.3655 26.1935 9.48455 26.3436 9.63463C26.4937 9.78472 26.6127 9.96289 26.694 10.159C26.7752 10.3551 26.817 10.5652 26.817 10.7775C26.817 11.6715 26.094 12.3945 25.2015 12.3945Z"
    fill="#ED283C"
  />
  <path
    d="M17.991 22.473C20.4788 22.473 22.4955 20.4563 22.4955 17.9685C22.4955 15.4807 20.4788 13.464 17.991 13.464C15.5032 13.464 13.4865 15.4807 13.4865 17.9685C13.4865 20.4563 15.5032 22.473 17.991 22.473Z"
    fill="#ED283C"
  />
</svg>
