<svg width="250" height="250" xmlns="http://www.w3.org/2000/svg" 
	 viewBox="0 0 250 250" >
	<g>
		<g>
			<circle cx="125" cy="125" r="30" fill='#ED283C'/>
		</g>
		<g>
			<path 
				d="M225,125c0,17.5-4.6,34.8-13.4,50c-8.8,15.2-21.4,27.8-36.6,36.6l-30-52c12-6.9,20-19.8,20-34.6H225z"
				fill='#ED283C'
			/>
		</g>
		<g>
			<path 
				d="M75,38.4C90.2,29.6,107.4,25,125,25c17.5,0,34.8,4.6,50,13.4l-30,52c-12-6.9-27.2-7.4-40,0L75,38.4z"
				fill='#ED283C'
			/>
		</g>
		<g>
			<path 
				d="M75,211.6c-15.2-8.8-27.8-21.4-36.6-36.6C29.6,159.8,25,142.5,25,125l60,0c0,13.8,7.2,27.2,20,34.6L75,211.6z"
				fill='#ED283C'
			/>
		</g>
	</g>
</svg>
