<svg width="27" height="26" viewBox="0 0 35 33" fill="none" xmlns="http://www.w3.org/2000/svg">
<path d="M30.165 11.2639C30.1692 11.2773 30.1719 11.2911 30.1724 11.3056C30.1807 11.4512 30.1915 11.5968 30.1958 11.7429C30.2337 12.9981 29.7493 13.9859 28.7688 14.7525C28.6746 14.8261 28.5353 14.7819 28.4994 14.6678L26.6082 8.65048C26.5709 8.53189 26.6675 8.41439 26.7909 8.42856C27.0685 8.45938 27.3308 8.48282 27.5825 8.54785C28.5797 8.80852 29.321 9.4078 29.8098 10.3177C29.8312 10.3574 29.8616 10.3918 29.89 10.4277C29.9032 10.4439 29.9125 10.463 29.9188 10.483L30.1643 11.2642L30.165 11.2639Z" fill="#ffffff"/>
<path d="M30.0879 22.6338C30.1305 22.7694 29.9991 22.8954 29.8658 22.8469C29.8648 22.8464 29.8638 22.8459 29.8631 22.8462C27.4861 21.9759 25.0815 21.2097 22.5784 20.783C20.2337 20.3831 17.875 20.2059 15.498 20.2893C15.2637 20.2978 15.1147 20.2436 15.026 20.0207C14.9218 19.7619 14.7742 19.5176 14.6903 19.2532C13.9251 16.8422 13.1699 14.4288 12.4114 12.0157C12.3658 11.8704 12.3049 11.7544 12.5011 11.63C16.608 9.01096 19.9756 5.63568 22.7186 1.62284C22.8239 1.46838 22.9346 1.31795 23.0514 1.15828C23.1347 1.04497 23.3116 1.07407 23.3537 1.20821L30.0879 22.6338Z" fill="#ffffff"/>
<path d="M5.65278 20.5184C5.61968 20.4572 5.55169 20.4248 5.48204 20.4312C4.43087 20.5328 3.69704 20.1128 3.42304 19.2591C3.14531 18.3936 3.49565 17.6402 4.43505 17.0949C4.49561 17.0596 4.53091 16.9931 4.5213 16.9236C4.50984 16.8328 4.49769 16.7397 4.4897 16.6469C4.43209 15.9403 4.8392 15.2431 5.48306 14.9519C5.61505 14.8925 5.75228 14.8421 5.89088 14.7985C7.74845 14.213 9.60671 13.6298 11.4647 13.0458C11.5144 13.0302 11.5648 13.0144 11.6167 12.9981C11.7071 12.9697 11.8035 13.02 11.832 13.1104L13.8304 19.4686C13.8588 19.559 13.8085 19.6555 13.718 19.6839L13.5661 19.7316C11.7362 20.3068 9.90563 20.8821 8.07576 21.4573C6.94158 21.8129 6.20558 21.5337 5.65278 20.5184Z" fill="#ffffff"/>
<path d="M13.1029 30.5001C11.6105 27.7468 10.1148 24.9856 8.61067 22.2107C8.55875 22.1154 8.60698 21.9968 8.71 21.9645L13.9135 20.329C13.9906 20.3047 14.0734 20.3374 14.1139 20.4069C14.4606 21.0072 14.8092 21.6086 15.1551 22.2116C15.6659 23.1008 16.1677 23.9952 16.6901 24.8774C16.7701 25.0127 16.9203 25.1333 17.0654 25.1984C17.4626 25.3765 17.8771 25.5166 18.2784 25.6844C18.3648 25.7208 18.4699 25.7986 18.4962 25.8798C18.7793 26.7469 19.0498 27.6179 19.3296 28.5081C19.358 28.5985 19.3079 28.6956 19.2175 28.7241L13.3062 30.582C13.2274 30.606 13.1427 30.5723 13.1029 30.5001Z" fill="#ffffff"/>
</svg>
