<svg width="20" height="25" viewBox="0 0 20 25" fill="none" xmlns="http://www.w3.org/2000/svg">
<g id="Group">
<path id="Vector" d="M9.66932 24.3985C7.26959 24.3985 4.87678 24.3985 2.47705 24.3985C0.955608 24.3985 -0.0402449 23.3681 0.00124894 21.8466C0.118815 17.5313 3.10637 13.866 7.36641 12.9946C10.0773 12.4413 12.733 12.6834 15.1119 14.2671C17.8644 16.0997 19.2682 18.7 19.3651 21.9919C19.4066 23.3404 18.3623 24.3847 17.0137 24.3916C14.5725 24.4054 12.1175 24.3985 9.66932 24.3985Z" fill="white"/>
<path id="Vector_2" d="M9.68315 11.6114C6.48121 11.6114 3.88092 9.0111 3.87401 5.81607C3.86709 2.60721 6.48121 -0.00690196 9.69007 1.369e-05C12.8989 1.369e-05 15.513 2.62796 15.4992 5.8299C15.4923 9.03185 12.892 11.6183 9.68315 11.6114Z" fill="white"/>
</g>
</svg>
