<svg width="21" height="27" viewBox="0 0 21 27" fill="none" xmlns="http://www.w3.org/2000/svg">
<path d="M18.0146 7.26821C18.0146 7.56265 18.0223 7.84388 18.0138 8.12511C17.9089 11.2552 17.3356 14.285 16.0529 17.1587C15.3157 18.8104 14.3624 20.3222 13.072 21.6048C12.3184 22.3537 11.4926 23.0079 10.5526 23.5121C10.4252 23.5805 10.3265 23.5797 10.1999 23.5074C8.69194 22.6451 7.43727 21.4992 6.39469 20.1163C4.99242 18.2565 4.11687 16.1496 3.521 13.9168C3.06885 12.2208 2.83113 10.49 2.74645 8.7373C2.72547 8.30846 2.71615 7.87884 2.69284 7.45C2.68662 7.33114 2.70838 7.28686 2.83889 7.26899C5.32104 6.93726 7.62839 6.13318 9.69878 4.69983C9.74928 4.66487 9.80444 4.63535 9.89223 4.58252C9.89766 4.68429 9.90466 4.74955 9.90466 4.81559C9.90466 9.90651 9.90466 14.9974 9.90543 20.0884C9.90543 20.1528 9.90388 20.2165 9.90543 20.281C9.91398 20.5677 10.1167 20.7984 10.3661 20.8046C10.6124 20.8116 10.833 20.5894 10.8416 20.2973C10.854 19.8553 10.8509 19.4132 10.8509 18.9704C10.8517 14.271 10.8525 9.5709 10.8532 4.87152V4.56543C13.0573 6.03296 15.3996 7.0064 18.0146 7.26821Z" fill="#ffffff"/>
<path d="M20.7313 5.35172C20.7305 4.87549 20.4415 4.59581 19.9653 4.5826C19.4339 4.56784 18.9017 4.55696 18.3727 4.5088C16.4584 4.33477 14.7174 3.65422 13.0937 2.65204C12.2454 2.12842 11.4965 1.47429 10.7678 0.79762C10.4927 0.542025 10.2527 0.542802 9.96601 0.785967C9.8052 0.921922 9.65137 1.06798 9.496 1.2117C8.26464 2.3475 6.90043 3.26967 5.31636 3.85078C3.84727 4.38993 2.33312 4.61601 0.77314 4.58726C0.236313 4.57716 0.00480181 4.82421 0.000917391 5.36415C-0.00840522 6.99949 0.0521913 8.63017 0.234759 10.2577C0.479478 12.4439 0.932401 14.5795 1.67433 16.6523C2.56308 19.136 3.82241 21.3944 5.68693 23.29C6.93461 24.5586 8.36175 25.5763 9.93727 26.3928C10.2263 26.5428 10.5075 26.5544 10.8004 26.4053C12.3301 25.6261 13.7339 24.6674 14.9365 23.4384C16.6682 21.6686 17.9322 19.5951 18.8256 17.2916C20.1145 13.972 20.6295 10.5087 20.7313 6.95054C20.7313 6.42848 20.7321 5.8901 20.7313 5.35172ZM17.6704 15.5701C17.0038 17.6265 16.0521 19.5415 14.6794 21.2281C13.5746 22.5861 12.2609 23.6947 10.7173 24.5299C10.4648 24.6666 10.2651 24.6682 10.0095 24.5252C7.92825 23.3614 6.2626 21.7595 4.98929 19.7528C3.796 17.8735 3.02766 15.8163 2.49938 13.662C1.92448 11.319 1.72482 8.93704 1.74347 6.53103C1.74347 6.49917 1.74968 6.4681 1.75512 6.41838C5.00483 6.18065 7.90494 5.08291 10.363 2.87268C12.8428 5.02698 15.7188 6.16123 18.9608 6.42382C18.9678 6.47431 18.9771 6.51704 18.9779 6.55899C19.0253 9.63157 18.6182 12.6428 17.6704 15.5701Z" fill="#ffffff"/>
<path d="M18.0146 7.26821C18.0146 7.56265 18.0223 7.84388 18.0138 8.12511C17.9089 11.2552 17.3356 14.285 16.0529 17.1587C15.3157 18.8104 14.3624 20.3222 13.072 21.6048C12.3184 22.3537 11.4926 23.0079 10.5526 23.5121C10.4252 23.5805 10.3265 23.5797 10.1999 23.5074C8.69194 22.6451 7.43727 21.4992 6.39469 20.1163C4.99242 18.2565 4.11687 16.1496 3.521 13.9168C3.06885 12.2208 2.83113 10.49 2.74645 8.7373C2.72547 8.30846 2.71615 7.87884 2.69284 7.45C2.68662 7.33114 2.70838 7.28686 2.83889 7.26899C5.32104 6.93726 7.62839 6.13318 9.69878 4.69983C9.74928 4.66487 9.80444 4.63535 9.89223 4.58252C9.89766 4.68429 9.90466 4.74955 9.90466 4.81559C9.90466 9.90651 9.90466 14.9974 9.90543 20.0884C9.90543 20.1528 9.90388 20.2165 9.90543 20.281C9.91398 20.5677 10.1167 20.7984 10.3661 20.8046C10.6124 20.8116 10.833 20.5894 10.8416 20.2973C10.854 19.8553 10.8509 19.4132 10.8509 18.9704C10.8517 14.271 10.8525 9.5709 10.8532 4.87152V4.56543C13.0573 6.03296 15.3996 7.0064 18.0146 7.26821Z" fill="#ffffff"/>
<path d="M20.7313 5.35172C20.7305 4.87549 20.4415 4.59581 19.9653 4.5826C19.4339 4.56784 18.9017 4.55696 18.3727 4.5088C16.4584 4.33477 14.7174 3.65422 13.0937 2.65204C12.2454 2.12842 11.4965 1.47429 10.7678 0.79762C10.4927 0.542025 10.2527 0.542802 9.96601 0.785967C9.8052 0.921922 9.65137 1.06798 9.496 1.2117C8.26464 2.3475 6.90043 3.26967 5.31636 3.85078C3.84727 4.38993 2.33312 4.61601 0.77314 4.58726C0.236313 4.57716 0.00480181 4.82421 0.000917391 5.36415C-0.00840522 6.99949 0.0521913 8.63017 0.234759 10.2577C0.479478 12.4439 0.932401 14.5795 1.67433 16.6523C2.56308 19.136 3.82241 21.3944 5.68693 23.29C6.93461 24.5586 8.36175 25.5763 9.93727 26.3928C10.2263 26.5428 10.5075 26.5544 10.8004 26.4053C12.3301 25.6261 13.7339 24.6674 14.9365 23.4384C16.6682 21.6686 17.9322 19.5951 18.8256 17.2916C20.1145 13.972 20.6295 10.5087 20.7313 6.95054C20.7313 6.42848 20.7321 5.8901 20.7313 5.35172ZM17.6704 15.5701C17.0038 17.6265 16.0521 19.5415 14.6794 21.2281C13.5746 22.5861 12.2609 23.6947 10.7173 24.5299C10.4648 24.6666 10.2651 24.6682 10.0095 24.5252C7.92825 23.3614 6.2626 21.7595 4.98929 19.7528C3.796 17.8735 3.02766 15.8163 2.49938 13.662C1.92448 11.319 1.72482 8.93704 1.74347 6.53103C1.74347 6.49917 1.74968 6.4681 1.75512 6.41838C5.00483 6.18065 7.90494 5.08291 10.363 2.87268C12.8428 5.02698 15.7188 6.16123 18.9608 6.42382C18.9678 6.47431 18.9771 6.51704 18.9779 6.55899C19.0253 9.63157 18.6182 12.6428 17.6704 15.5701Z" fill="#ffffff"/>
<path d="M18.0138 8.12597C17.9089 11.256 17.3356 14.2859 16.0529 17.1596C15.3157 18.8112 14.3624 20.3231 13.072 21.6057C12.3184 22.3546 11.4926 23.0087 10.5526 23.5129C10.4252 23.5813 10.3265 23.5805 10.1999 23.5083C8.69194 22.6459 7.43727 21.5 6.39469 20.1172C4.99242 18.2573 4.11687 16.1504 3.521 13.9176C3.06885 12.2217 2.83113 10.4908 2.74645 8.73815C2.72547 8.30931 2.71615 7.87969 2.69284 7.45085C2.68662 7.33199 2.70838 7.28771 2.83889 7.26984C5.32104 6.93811 7.62839 6.13404 9.69878 4.70068C9.74928 4.66573 9.80444 4.6362 9.89223 4.58338C9.89767 4.68515 9.90466 4.75041 9.90466 4.81644C9.90466 9.90736 9.90466 14.9983 9.90544 20.0892C9.90544 20.1537 9.90388 20.2174 9.90544 20.2819C9.91398 20.5685 10.1167 20.7993 10.3661 20.8055C10.6124 20.8125 10.833 20.5903 10.8416 20.2982C10.854 19.8561 10.8509 19.4141 10.8509 18.9713C10.8517 14.2719 10.8525 9.57175 10.8532 4.87238V4.56628C13.058 6.0346 15.4003 7.00803 18.0153 7.27062C18.0146 7.5635 18.0231 7.84474 18.0138 8.12597Z" fill="#ffffff"/>
<path d="M18.0138 8.12597C17.9089 11.256 17.3356 14.2859 16.0529 17.1596C15.3157 18.8112 14.3624 20.3231 13.072 21.6057C12.3184 22.3546 11.4926 23.0087 10.5526 23.5129C10.4252 23.5813 10.3265 23.5805 10.1999 23.5083C8.69194 22.6459 7.43727 21.5 6.39469 20.1172C4.99242 18.2573 4.11687 16.1504 3.521 13.9176C3.06885 12.2217 2.83113 10.4908 2.74645 8.73815C2.72547 8.30931 2.71615 7.87969 2.69284 7.45085C2.68662 7.33199 2.70838 7.28771 2.83889 7.26984C5.32104 6.93811 7.62839 6.13404 9.69878 4.70068C9.74928 4.66573 9.80444 4.6362 9.89223 4.58338C9.89767 4.68515 9.90466 4.75041 9.90466 4.81644C9.90466 9.90736 9.90466 14.9983 9.90544 20.0892C9.90544 20.1537 9.90388 20.2174 9.90544 20.2819C9.91398 20.5685 10.1167 20.7993 10.3661 20.8055C10.6124 20.8125 10.833 20.5903 10.8416 20.2982C10.854 19.8561 10.8509 19.4141 10.8509 18.9713C10.8517 14.2719 10.8525 9.57175 10.8532 4.87238V4.56628C13.058 6.0346 15.4003 7.00803 18.0153 7.27062C18.0146 7.5635 18.0231 7.84474 18.0138 8.12597Z" fill="#ffffff"/>
<path d="M18.0138 8.12597C17.9089 11.256 17.3356 14.2859 16.0529 17.1596C15.3157 18.8112 14.3624 20.3231 13.072 21.6057C12.3184 22.3546 11.4926 23.0087 10.5526 23.5129C10.4252 23.5813 10.3265 23.5805 10.1999 23.5083C8.69194 22.6459 7.43727 21.5 6.39469 20.1172C4.99242 18.2573 4.11687 16.1504 3.521 13.9176C3.06885 12.2217 2.83113 10.4908 2.74645 8.73815C2.72547 8.30931 2.71615 7.87969 2.69284 7.45085C2.68662 7.33199 2.70838 7.28771 2.83889 7.26984C5.32104 6.93811 7.62839 6.13404 9.69878 4.70068C9.74928 4.66573 9.80444 4.6362 9.89223 4.58338C9.89767 4.68515 9.90466 4.75041 9.90466 4.81644C9.90466 9.90736 9.90466 14.9983 9.90544 20.0892C9.90544 20.1537 9.90388 20.2174 9.90544 20.2819C9.91398 20.5685 10.1167 20.7993 10.3661 20.8055C10.6124 20.8125 10.833 20.5903 10.8416 20.2982C10.854 19.8561 10.8509 19.4141 10.8509 18.9713C10.8517 14.2719 10.8525 9.57175 10.8532 4.87238V4.56628C13.058 6.0346 15.4003 7.00803 18.0153 7.27062C18.0146 7.5635 18.0231 7.84474 18.0138 8.12597Z" fill="#ffffff"/>
<path d="M18.0138 8.12597C17.9089 11.256 17.3356 14.2859 16.0529 17.1596C15.3157 18.8112 14.3624 20.3231 13.072 21.6057C12.3184 22.3546 11.4926 23.0087 10.5526 23.5129C10.4252 23.5813 10.3265 23.5805 10.1999 23.5083C8.69194 22.6459 7.43727 21.5 6.39469 20.1172C4.99242 18.2573 4.11687 16.1504 3.521 13.9176C3.06885 12.2217 2.83113 10.4908 2.74645 8.73815C2.72547 8.30931 2.71615 7.87969 2.69284 7.45085C2.68662 7.33199 2.70838 7.28771 2.83889 7.26984C5.32104 6.93811 7.62839 6.13404 9.69878 4.70068C9.74928 4.66573 9.80444 4.6362 9.89223 4.58338C9.89767 4.68515 9.90466 4.75041 9.90466 4.81644C9.90466 9.90736 9.90466 14.9983 9.90544 20.0892C9.90544 20.1537 9.90388 20.2174 9.90544 20.2819C9.91398 20.5685 10.1167 20.7993 10.3661 20.8055C10.6124 20.8125 10.833 20.5903 10.8416 20.2982C10.854 19.8561 10.8509 19.4141 10.8509 18.9713C10.8517 14.2719 10.8525 9.57175 10.8532 4.87238V4.56628C13.058 6.0346 15.4003 7.00803 18.0153 7.27062C18.0146 7.5635 18.0231 7.84474 18.0138 8.12597Z" fill="#ffffff"/>
</svg>
