<svg width="32" height="20" viewBox="0 0 32 20" fill="none" xmlns="http://www.w3.org/2000/svg">
<path d="M16.2141 0.762055L17.7003 3.77248C17.7415 3.85561 17.8207 3.9131 17.9124 3.92631L21.2351 4.40875C21.4659 4.44216 21.5583 4.7265 21.3913 4.88887L18.9868 7.23273C18.9208 7.29721 18.8905 7.39043 18.906 7.4821L19.4739 10.7916C19.5135 11.0216 19.2719 11.1972 19.0653 11.0884L16.0937 9.52609C16.0114 9.48258 15.9135 9.48258 15.8319 9.52609L12.8603 11.0884C12.6537 11.1972 12.412 11.0216 12.4517 10.7916L13.0196 7.4821C13.0351 7.39043 13.0048 7.29721 12.9388 7.23273L10.5343 4.88887C10.3673 4.72572 10.4597 4.44216 10.6905 4.40875L14.0132 3.92631C14.1049 3.9131 14.1841 3.85561 14.2253 3.77248L15.7115 0.762055C15.8125 0.552297 16.1108 0.552297 16.2141 0.762055Z" fill="#ffffff"/>
<path d="M5.76502 8.76401L7.2512 11.7744C7.29237 11.8576 7.37161 11.9151 7.46329 11.9283L10.786 12.4107C11.0168 12.4441 11.1092 12.7284 10.9422 12.8908L8.53772 15.2347C8.47168 15.2992 8.44138 15.3924 8.45692 15.4841L9.02482 18.7936C9.06445 19.0235 8.82284 19.1991 8.61619 19.0904L5.6446 17.528C5.56225 17.4845 5.46436 17.4845 5.38279 17.528L2.41121 19.0904C2.20456 19.1991 1.96295 19.0235 2.00257 18.7936L2.57047 15.4841C2.58601 15.3924 2.55571 15.2992 2.48967 15.2347L0.0852191 12.8908C-0.081811 12.7277 0.010639 12.4441 0.241374 12.4107L3.56411 11.9283C3.65578 11.9151 3.73502 11.8576 3.77619 11.7744L5.26237 8.76401C5.36337 8.55425 5.66169 8.55425 5.76502 8.76401Z" fill="#ffffff"/>
<path d="M26.6632 8.76401L28.1494 11.7744C28.1906 11.8576 28.2698 11.9151 28.3615 11.9283L31.6842 12.4107C31.915 12.4441 32.0074 12.7284 31.8404 12.8908L29.4359 15.2347C29.3699 15.2992 29.3396 15.3924 29.3551 15.4841L29.923 18.7936C29.9626 19.0235 29.721 19.1991 29.5144 19.0904L26.5428 17.528C26.4604 17.4845 26.3626 17.4845 26.281 17.528L23.3094 19.0904C23.1028 19.1991 22.8611 19.0235 22.9008 18.7936L23.4687 15.4841C23.4842 15.3924 23.4539 15.2992 23.3879 15.2347L20.9834 12.8908C20.8164 12.7277 20.9088 12.4441 21.1396 12.4107L24.4623 11.9283C24.554 11.9151 24.6332 11.8576 24.6744 11.7744L26.1606 8.76401C26.2616 8.55425 26.5599 8.55425 26.6632 8.76401Z" fill="#ffffff"/>
</svg>
